# xmcd CD database file
#
# Track frame offsets:
#	150
#	19970
#	49185
#	82315
#	111895
#	143035
#	167928
#	229870
#	264980
#	281960
#
# Disc length: 4194 seconds
#
# Revision: 0
# Processed by: cddbd v1.5.2PL0 Copyright (c) Steve Scherf et al.
# Submitted via: CDex 1.70beta2
#
DISCID=9410600a
DTITLE=Oscar Peterson Trio - The Great Trio
DYEAR=1900
DGENRE=Jazz
TTITLE0=Riff Blues
TTITLE1=Who Cares
TTITLE2=I'm Getting Sentimental Over You
TTITLE3=Caravan
TTITLE4=Eyes Of Love
TTITLE5=Blues Etude
TTITLE6=Chicago
TTITLE7=Easy Listening Blues
TTITLE8=Come Sunday
TTITLE9=Secret Love
EXTD=
EXTT0=
EXTT1=
EXTT2=
EXTT3=
EXTT4=
EXTT5=
EXTT6=
EXTT7=
EXTT8=
EXTT9=
PLAYORDER=
